<svg width="116" height="59" viewBox="0 0 116 59" fill="none" xmlns="http://www.w3.org/2000/svg">
<path d="M114.5 29.5C114.5 36.7854 108.659 43.7701 98.3322 49.0227C88.0876 54.2332 73.8303 57.5 58 57.5C42.1697 57.5 27.9124 54.2332 17.6678 49.0227C7.34071 43.7701 1.5 36.7854 1.5 29.5C1.5 22.2146 7.34071 15.2299 17.6678 9.97735C27.9124 4.76677 42.1697 1.5 58 1.5C73.8303 1.5 88.0876 4.76677 98.3322 9.97735C108.659 15.2299 114.5 22.2146 114.5 29.5Z" stroke="#FFF500" stroke-width="3"/>
<path d="M19 32.4595V28.2973H30.536V32.4595H19Z" fill="#FFF500"/>
<path d="M33.0571 38.4054V33.6486L40.0083 29.3378C41.645 28.3468 42.7887 27.4847 43.4395 26.7514C44.11 25.9982 44.4452 25.2252 44.4452 24.4324C44.4452 23.7387 44.1987 23.1739 43.7057 22.7378C43.2324 22.282 42.5915 22.0541 41.783 22.0541C40.5407 22.0541 39.6237 22.4505 39.0322 23.2432C38.7955 23.5604 38.6279 23.9568 38.5293 24.4324H32.9092C33.1064 23.0847 33.5698 21.8459 34.2995 20.7162C35.9165 18.2387 38.411 17 41.783 17C44.386 17 46.4369 17.6739 47.9355 19.0216C49.454 20.3694 50.2132 22.0739 50.2132 24.1351C50.2132 25.8396 49.73 27.3063 48.7638 28.5351C47.7975 29.7441 46.358 30.9036 44.4452 32.0135L42.3746 33.2027L41.1915 33.6486V33.9459L43.262 33.6486H50.2132V38.4054H33.0571Z" fill="#FFF500"/>
<path d="M55.516 35.9378C53.5637 33.8964 52.5876 31.2505 52.5876 28C52.5876 24.7496 53.5637 22.1036 55.516 20.0622C57.4879 18.0207 59.9627 17 62.9404 17C65.918 17 68.383 18.0207 70.3352 20.0622C72.3072 22.1036 73.2931 24.7496 73.2931 28C73.2931 31.2505 72.3072 33.8964 70.3352 35.9378C68.383 37.9793 65.918 39 62.9404 39C59.9627 39 57.4879 37.9793 55.516 35.9378ZM59.5979 23.5703C58.7697 24.5811 58.3556 26.0577 58.3556 28C58.3556 29.9423 58.7697 31.4189 59.5979 32.4297C60.4261 33.4405 61.5403 33.9459 62.9404 33.9459C64.3405 33.9459 65.4546 33.4405 66.2828 32.4297C67.1111 31.4189 67.5252 29.9423 67.5252 28C67.5252 26.0577 67.1111 24.5811 66.2828 23.5703C65.4546 22.5595 64.3405 22.0541 62.9404 22.0541C61.5403 22.0541 60.4261 22.5595 59.5979 23.5703Z" fill="#FFF500"/>
<path d="M76.9986 25.9486C76.0127 24.9775 75.5197 23.7784 75.5197 22.3514C75.5197 20.9243 76.0127 19.7252 76.9986 18.7541C77.9846 17.7829 79.2171 17.2973 80.6961 17.2973C82.175 17.2973 83.4075 17.7829 84.3935 18.7541C85.3795 19.7252 85.8725 20.9243 85.8725 22.3514C85.8725 23.7784 85.3795 24.9775 84.3935 25.9486C83.4075 26.9198 82.175 27.4054 80.6961 27.4054C79.2171 27.4054 77.9846 26.9198 76.9986 25.9486ZM78.6255 38.4054L91.0489 17.5946H94.8942L82.4708 38.4054H78.6255ZM79.4242 21.073C79.0889 21.4099 78.9213 21.836 78.9213 22.3514C78.9213 22.8667 79.0889 23.2928 79.4242 23.6297C79.7594 23.9667 80.1834 24.1351 80.6961 24.1351C81.2088 24.1351 81.6328 23.9667 81.968 23.6297C82.3032 23.2928 82.4708 22.8667 82.4708 22.3514C82.4708 21.836 82.3032 21.4099 81.968 21.073C81.6328 20.736 81.2088 20.5676 80.6961 20.5676C80.1834 20.5676 79.7594 20.736 79.4242 21.073ZM89.1262 37.2459C88.1402 36.2748 87.6472 35.0757 87.6472 33.6486C87.6472 32.2216 88.1402 31.0225 89.1262 30.0514C90.1122 29.0802 91.3446 28.5946 92.8236 28.5946C94.3026 28.5946 95.535 29.0802 96.521 30.0514C97.507 31.0225 98 32.2216 98 33.6486C98 35.0757 97.507 36.2748 96.521 37.2459C95.535 38.2171 94.3026 38.7027 92.8236 38.7027C91.3446 38.7027 90.1122 38.2171 89.1262 37.2459ZM91.5517 32.3703C91.2165 32.7072 91.0489 33.1333 91.0489 33.6486C91.0489 34.164 91.2165 34.5901 91.5517 34.927C91.8869 35.264 92.3109 35.4324 92.8236 35.4324C93.3363 35.4324 93.7603 35.264 94.0955 34.927C94.4308 34.5901 94.5984 34.164 94.5984 33.6486C94.5984 33.1333 94.4308 32.7072 94.0955 32.3703C93.7603 32.0333 93.3363 31.8649 92.8236 31.8649C92.3109 31.8649 91.8869 32.0333 91.5517 32.3703Z" fill="#FFF500"/>
</svg>
