<svg width="17" height="17" viewBox="0 0 17 17" xmlns="http://www.w3.org/2000/svg">
<path d="M16.4437 14.6875L13.232 11.9406C14.1766 10.7195 14.6875 9.22656 14.6875 7.65625C14.6875 5.77656 13.9539 4.01406 12.6273 2.68516C11.3008 1.35625 9.53359 0.625 7.65625 0.625C5.77891 0.625 4.01172 1.35859 2.68516 2.68516C1.35625 4.01172 0.625 5.77656 0.625 7.65625C0.625 9.53359 1.35859 11.3008 2.68516 12.6273C4.01172 13.9562 5.77656 14.6875 7.65625 14.6875C9.22656 14.6875 10.7172 14.1766 11.9383 13.2344L15.1499 15.9789C15.1678 15.9968 15.189 16.0109 15.2123 16.0206C15.2356 16.0303 15.2606 16.0352 15.2859 16.0352C15.3111 16.0352 15.3361 16.0303 15.3594 16.0206C15.3828 16.0109 15.4039 15.9968 15.4218 15.9789L16.4437 14.9594C16.4615 14.9415 16.4757 14.9203 16.4854 14.897C16.495 14.8737 16.5 14.8487 16.5 14.8234C16.5 14.7982 16.495 14.7732 16.4854 14.7499C16.4757 14.7265 16.4615 14.7053 16.4437 14.6875ZM11.3688 11.3688C10.375 12.3602 9.05781 12.9062 7.65625 12.9062C6.25469 12.9062 4.9375 12.3602 3.94375 11.3688C2.95234 10.375 2.40625 9.05781 2.40625 7.65625C2.40625 6.25469 2.95234 4.93516 3.94375 3.94375C4.9375 2.95234 6.25469 2.40625 7.65625 2.40625C9.05781 2.40625 10.3773 2.95 11.3688 3.94375C12.3602 4.9375 12.9062 6.25469 12.9062 7.65625C12.9062 9.05781 12.3602 10.3773 11.3688 11.3688Z"/>
</svg>
